<svg width="720" height="720" viewBox="0 0 720 720" fill="none" xmlns="http://www.w3.org/2000/svg">
<path d="M0 65.0195C0 53.7222 11.6872 45.2235 20.8808 50.711L323.843 217.421C330.41 221.341 334.483 228.776 334.483 236.846V654.073C334.483 665.391 323.146 672.53 313.952 667.001L7.05567 482.467C2.69864 479.847 0 474.902 0 469.539L0 65.0195Z" fill="white"/>
<path d="M720 105.948C720 95.5845 710.347 88.4232 701.324 92.0923L379.572 222.922C371.528 226.193 366.207 234.468 366.207 243.706V329.679C366.207 340.256 376.228 347.426 385.315 343.35L711.522 197.035C716.656 194.732 720 189.34 720 183.364V105.948Z" fill="white"/>
<path d="M720 257.119C720 246.542 709.979 239.372 700.892 243.447L378.925 387.853C371.222 391.308 366.207 399.395 366.207 408.361V494.874C366.207 505.45 376.228 512.621 385.315 508.545L711.522 362.238C716.656 359.935 720 354.543 720 348.566V257.119Z" fill="white"/>
<path d="M720 419.35C720 408.773 709.979 401.603 700.892 405.679L378.925 550.085C371.222 553.539 366.207 561.627 366.207 570.592V656.167C366.207 666.985 376.651 674.156 385.792 669.613L711.999 507.488C716.877 505.064 720 499.816 720 494.042V419.35Z" fill="white"/>
</svg>
